<svg xmlns="http://www.w3.org/2000/svg" width="100" height="10" viewBox="0 0 100 17.204">
  <g id="Groupe_90" data-name="Groupe 90" transform="translate(-567.288 -2733.442)">
    <g id="Groupe_44" data-name="Groupe 44" transform="translate(507.544 2733.442)">
      <path id="Icon_material-cake" data-name="Icon material-cake" d="M14.809,4.692c1.271,0,2.291-.7,2.291-1.564a1.166,1.166,0,0,0-.332-.805L14.809,0,12.85,2.323a1.166,1.166,0,0,0-.332.805C12.518,3.988,13.549,4.692,14.809,4.692ZM20.078,12.5l-1.226-.837-1.237.837a5.506,5.506,0,0,1-5.6,0l-1.226-.837L9.54,12.5a5,5,0,0,1-2.795.79A5.355,5.355,0,0,1,4.5,12.817v3.605c0,.43.515.782,1.145.782H23.972c.63,0,1.145-.352,1.145-.782V12.817a5.355,5.355,0,0,1-2.245.477A5,5,0,0,1,20.078,12.5Zm1.6-5.466H15.954V5.474H13.663V7.038H7.936c-1.9,0-3.436,1.048-3.436,2.346v1.2c0,.845,1.008,1.533,2.245,1.533a2.8,2.8,0,0,0,1.581-.446l2.451-1.666,2.44,1.666a3.116,3.116,0,0,0,3.173,0l2.451-1.666,2.44,1.666a2.822,2.822,0,0,0,1.581.446c1.237,0,2.245-.688,2.245-1.533v-1.2C25.117,8.086,23.583,7.038,21.681,7.038Z" transform="translate(82.244)" fill="#fca5b6"/>
      <path id="Icon_material-cake-2" data-name="Icon material-cake" d="M14.809,4.692c1.271,0,2.291-.7,2.291-1.564a1.166,1.166,0,0,0-.332-.805L14.809,0,12.85,2.323a1.166,1.166,0,0,0-.332.805C12.518,3.988,13.549,4.692,14.809,4.692ZM20.078,12.5l-1.226-.837-1.237.837a5.506,5.506,0,0,1-5.6,0l-1.226-.837L9.54,12.5a5,5,0,0,1-2.795.79A5.355,5.355,0,0,1,4.5,12.817v3.605c0,.43.515.782,1.145.782H23.972c.63,0,1.145-.352,1.145-.782V12.817a5.355,5.355,0,0,1-2.245.477A5,5,0,0,1,20.078,12.5Zm1.6-5.466H15.954V5.474H13.663V7.038H7.936c-1.9,0-3.436,1.048-3.436,2.346v1.2c0,.845,1.008,1.533,2.245,1.533a2.8,2.8,0,0,0,1.581-.446l2.451-1.666,2.44,1.666a3.116,3.116,0,0,0,3.173,0l2.451-1.666,2.44,1.666a2.822,2.822,0,0,0,1.581.446c1.237,0,2.245-.688,2.245-1.533v-1.2C25.117,8.086,23.583,7.038,21.681,7.038Z" transform="translate(55.244)" fill="#fca5b6"/>
    </g>
    <g id="Groupe_80" data-name="Groupe 80" transform="translate(563.544 2733.442)">
      <path id="Icon_material-cake-3" data-name="Icon material-cake" d="M14.809,4.692c1.271,0,2.291-.7,2.291-1.564a1.166,1.166,0,0,0-.332-.805L14.809,0,12.85,2.323a1.166,1.166,0,0,0-.332.805C12.518,3.988,13.549,4.692,14.809,4.692ZM20.078,12.5l-1.226-.837-1.237.837a5.506,5.506,0,0,1-5.6,0l-1.226-.837L9.54,12.5a5,5,0,0,1-2.795.79A5.355,5.355,0,0,1,4.5,12.817v3.605c0,.43.515.782,1.145.782H23.972c.63,0,1.145-.352,1.145-.782V12.817a5.355,5.355,0,0,1-2.245.477A5,5,0,0,1,20.078,12.5Zm1.6-5.466H15.954V5.474H13.663V7.038H7.936c-1.9,0-3.436,1.048-3.436,2.346v1.2c0,.845,1.008,1.533,2.245,1.533a2.8,2.8,0,0,0,1.581-.446l2.451-1.666,2.44,1.666a3.116,3.116,0,0,0,3.173,0l2.451-1.666,2.44,1.666a2.822,2.822,0,0,0,1.581.446c1.237,0,2.245-.688,2.245-1.533v-1.2C25.117,8.086,23.583,7.038,21.681,7.038Z" transform="translate(82.244)" fill="#fca5b6"/>
      <path id="Icon_material-cake-4" data-name="Icon material-cake" d="M14.809,4.692c1.271,0,2.291-.7,2.291-1.564a1.166,1.166,0,0,0-.332-.805L14.809,0,12.85,2.323a1.166,1.166,0,0,0-.332.805C12.518,3.988,13.549,4.692,14.809,4.692ZM20.078,12.5l-1.226-.837-1.237.837a5.506,5.506,0,0,1-5.6,0l-1.226-.837L9.54,12.5a5,5,0,0,1-2.795.79A5.355,5.355,0,0,1,4.5,12.817v3.605c0,.43.515.782,1.145.782H23.972c.63,0,1.145-.352,1.145-.782V12.817a5.355,5.355,0,0,1-2.245.477A5,5,0,0,1,20.078,12.5Zm1.6-5.466H15.954V5.474H13.663V7.038H7.936c-1.9,0-3.436,1.048-3.436,2.346v1.2c0,.845,1.008,1.533,2.245,1.533a2.8,2.8,0,0,0,1.581-.446l2.451-1.666,2.44,1.666a3.116,3.116,0,0,0,3.173,0l2.451-1.666,2.44,1.666a2.822,2.822,0,0,0,1.581.446c1.237,0,2.245-.688,2.245-1.533v-1.2C25.117,8.086,23.583,7.038,21.681,7.038Z" transform="translate(55.244)" fill="#fca5b6"/>
    </g>
  </g>
</svg>
